<?xml version="1.0" encoding="UTF-8"?>
<!DOCTYPE svg PUBLIC "-//W3C//DTD SVG 1.1//EN" "http://www.w3.org/Graphics/SVG/1.1/DTD/svg11.dtd">
<!-- Creator: CorelDRAW X7 -->
<svg xmlns="http://www.w3.org/2000/svg" xml:space="preserve" width="38.5998mm" height="39.5661mm" version="1.1" style="shape-rendering:geometricPrecision; text-rendering:geometricPrecision; image-rendering:optimizeQuality; fill-rule:evenodd; clip-rule:evenodd"
viewBox="0 0 1630 1671"
 xmlns:xlink="http://www.w3.org/1999/xlink">
 <defs>
  <style type="text/css">
   <![CDATA[
    .fil0 {fill:#000D9C}
    .fil1 {fill:yellow}
   ]]>
  </style>
 </defs>
 <g id="Layer_x0020_1">
  <metadata id="CorelCorpID_0Corel-Layer"/>
  <path class="fil0" d="M366 544c0,-210 82,-402 216,-544 -338,115 -582,435 -582,813 0,473 384,858 858,858 339,0 633,-197 772,-483 -132,95 -293,152 -468,152 -439,0 -796,-356 -796,-796z"/>
  <polygon class="fil1" points="232,737 253,802 322,801 266,841 288,906 232,866 177,906 198,841 143,801 211,802 "/>
  <polygon class="fil1" points="371,1112 390,1171 452,1171 402,1207 421,1266 371,1229 321,1266 340,1207 290,1171 352,1171 "/>
  <polygon class="fil1" points="985,1344 1001,1392 1051,1392 1010,1422 1026,1470 985,1440 945,1470 960,1422 919,1392 970,1392 "/>
  <polygon class="fil1" points="623,1393 633,1423 664,1423 639,1441 648,1470 623,1452 598,1470 608,1441 583,1423 614,1423 "/>
 </g>
</svg>
