<?xml version="1.0" encoding="UTF-8"?>
<!DOCTYPE svg PUBLIC "-//W3C//DTD SVG 1.1//EN" "http://www.w3.org/Graphics/SVG/1.1/DTD/svg11.dtd">
<!-- Creator: CorelDRAW X7 -->
<svg xmlns="http://www.w3.org/2000/svg" xml:space="preserve" width="43.819mm" height="43.819mm" version="1.1" style="shape-rendering:geometricPrecision; text-rendering:geometricPrecision; image-rendering:optimizeQuality; fill-rule:evenodd; clip-rule:evenodd"
viewBox="0 0 41086 41086"
 xmlns:xlink="http://www.w3.org/1999/xlink">
 <defs>
  <style type="text/css">
   <![CDATA[
    .fil1 {fill:aqua}
    .fil0 {fill:yellow}
   ]]>
  </style>
 </defs>
 <g id="Layer_x0020_1">
  <metadata id="CorelCorpID_0Corel-Layer"/>
  <circle class="fil0" cx="20543" cy="20599" r="6904"/>
  <rect class="fil0" x="19977" width="1132" height="12111" rx="566" ry="566"/>
  <rect class="fil0" x="19977" y="28975" width="1132" height="12111" rx="566" ry="566"/>
  <rect class="fil0" transform="matrix(3.02082E-014 1.1406 -1.1406 3.02082E-014 41085.8 19977.1)" width="992" height="10618" rx="496" ry="496"/>
  <rect class="fil0" transform="matrix(3.02082E-014 1.1406 -1.1406 3.02082E-014 12110.7 19977.1)" width="992" height="10618" rx="496" ry="496"/>
  <rect class="fil0" transform="matrix(0.806524 0.806524 -0.806524 0.806524 34668.8 5616.8)" width="992" height="10618" rx="496" ry="496"/>
  <rect class="fil0" transform="matrix(0.806524 0.806524 -0.806524 0.806524 14180.2 26105.3)" width="992" height="10618" rx="496" ry="496"/>
  <rect class="fil0" transform="matrix(-0.806524 0.806524 -0.806524 -0.806524 35469 34669)" width="992" height="10618" rx="496" ry="496"/>
  <rect class="fil0" transform="matrix(-0.806524 0.806524 -0.806524 -0.806524 14980.5 14180.5)" width="992" height="10618" rx="496" ry="496"/>
  <polygon class="fil1" points="20543,17691 21261,19917 23601,19913 21706,21284 22433,23507 20543,22129 18653,23507 19380,21284 17485,19913 19824,19917 "/>
 </g>
</svg>
