<?xml version="1.0" encoding="UTF-8"?>
<!DOCTYPE svg PUBLIC "-//W3C//DTD SVG 1.1//EN" "http://www.w3.org/Graphics/SVG/1.1/DTD/svg11.dtd">
<!-- Creator: CorelDRAW X7 -->
<svg xmlns="http://www.w3.org/2000/svg" xml:space="preserve" width="26.046mm" height="8.0768mm" version="1.1" style="shape-rendering:geometricPrecision; text-rendering:geometricPrecision; image-rendering:optimizeQuality; fill-rule:evenodd; clip-rule:evenodd"
viewBox="0 0 1277 396"
 xmlns:xlink="http://www.w3.org/1999/xlink">
 <defs>
  <style type="text/css">
   <![CDATA[
    .fil0 {fill:#0040FF}
    .fil1 {fill:#E1FF00;fill-rule:nonzero}
   ]]>
  </style>
 </defs>
 <g id="Layer_x0020_1">
  <metadata id="CorelCorpID_0Corel-Layer"/>
  <g id="_405363928">
   <path class="fil0" d="M91 285c-11,0 -17,-6 -17,-16l0 -35c0,-7 -1,-13 -4,-16 -3,-4 -8,-6 -15,-6 -8,0 -13,2 -17,5 -4,3 -6,9 -6,16l0 34c0,12 -5,18 -16,18 -11,0 -16,-6 -16,-18l0 -127c0,-11 5,-17 16,-17 11,0 16,6 16,17l0 53c3,-2 5,-3 7,-5 2,-1 6,-2 11,-4 8,-2 13,-6 16,-13 3,-7 4,-18 4,-32 0,-6 1,-10 4,-12 2,-3 6,-4 11,-4 11,0 17,5 17,17 0,15 -2,27 -5,36 -3,10 -8,17 -15,22 16,7 24,19 24,36l0 35c0,10 -5,16 -15,16zm79 0c-15,0 -27,-4 -36,-11 -8,-7 -12,-16 -12,-27 0,-13 5,-22 16,-28 11,-6 28,-8 49,-6 -1,-7 -3,-12 -7,-14 -3,-3 -7,-4 -12,-4 -3,0 -6,0 -9,0 -2,1 -5,1 -7,2 -2,0 -4,0 -7,0 -5,0 -8,0 -10,-2 -3,-1 -4,-4 -4,-8 0,-7 3,-11 8,-14 6,-3 14,-4 26,-4 18,0 31,5 40,15 9,11 14,25 14,42 0,20 -4,35 -11,44 -8,10 -20,15 -38,15zm-16 -38c0,9 6,13 18,13 3,0 6,-1 8,-2 2,-1 4,-4 5,-8 1,-4 2,-10 2,-18 -1,0 -2,1 -3,1 -1,0 -2,1 -3,1 -10,0 -17,1 -21,2 -4,2 -6,6 -6,11zm137 38c-16,0 -29,-5 -38,-15 -9,-10 -13,-26 -13,-46l0 -95c0,-12 5,-18 16,-18 10,0 16,6 16,18l0 19c0,6 -1,11 -1,15 0,3 0,7 -1,9 0,3 -1,6 -2,9 3,-4 6,-8 11,-10 6,-2 12,-2 20,-2 9,0 17,1 24,5 7,3 12,9 16,17 4,8 6,18 6,32 0,20 -5,35 -15,46 -9,10 -22,16 -39,16zm2 -27c6,0 11,-3 15,-7 3,-5 5,-13 5,-25 0,-9 -1,-15 -2,-19 -2,-4 -4,-7 -7,-9 -3,-2 -7,-2 -11,-2 -4,0 -8,0 -11,2 -3,2 -5,5 -7,9 -1,4 -2,10 -2,19 0,12 2,20 5,25 4,4 9,7 15,7zm113 27c-15,0 -27,-4 -35,-11 -8,-7 -13,-16 -13,-27 0,-13 6,-22 17,-28 11,-6 27,-8 48,-6 -1,-7 -3,-12 -6,-14 -3,-3 -7,-4 -12,-4 -4,0 -7,0 -9,0 -3,1 -5,1 -7,2 -2,0 -5,0 -8,0 -4,0 -7,0 -10,-2 -2,-1 -3,-4 -3,-8 0,-7 3,-11 8,-14 5,-3 14,-4 25,-4 18,0 32,5 41,15 9,11 13,25 13,42 0,20 -3,35 -11,44 -7,10 -20,15 -38,15zm-15 -38c0,9 6,13 17,13 4,0 7,-1 9,-2 2,-1 4,-4 5,-8 1,-4 1,-10 2,-18 -1,0 -2,1 -3,1 -1,0 -3,1 -4,1 -10,0 -17,1 -20,2 -4,2 -6,6 -6,11zm102 38c-11,0 -16,-5 -16,-16l0 -85c0,-10 5,-15 16,-15 5,0 9,1 12,3 2,2 3,6 3,11 3,-5 7,-8 12,-11 5,-2 11,-3 18,-3 13,0 19,5 19,16 0,5 -2,8 -5,10 -3,2 -8,3 -15,3 -7,0 -13,1 -17,2 -4,1 -7,4 -8,7 -2,3 -3,8 -3,14l0 48c0,11 -5,16 -16,16zm87 -136c-5,0 -10,-2 -14,-5 -3,-4 -5,-8 -5,-14 0,-5 2,-10 5,-13 4,-4 9,-6 14,-6 6,0 11,2 14,6 4,3 6,8 6,13 0,6 -2,10 -6,14 -3,3 -8,5 -14,5zm17 121c0,10 -6,15 -16,15 -5,0 -9,-2 -12,-4 -3,-3 -5,-6 -5,-11l0 -86c0,-5 1,-9 4,-11 2,-3 7,-4 12,-4 6,0 10,1 13,4 2,2 4,6 4,11l0 86zm40 15c-11,0 -16,-5 -16,-16l0 -54c0,-14 4,-25 14,-34 9,-8 21,-12 36,-12 15,0 27,4 37,12 9,9 14,20 14,34l0 54c0,11 -6,16 -17,16 -10,0 -16,-5 -16,-16l0 -52c0,-7 -1,-12 -5,-16 -3,-4 -7,-5 -13,-5 -6,0 -10,1 -13,5 -3,4 -5,9 -5,16l0 52c0,11 -5,16 -16,16z"/>
   <path class="fil1" d="M643 36c29,-33 76,-42 129,-32 50,10 105,38 155,81 49,43 84,95 100,142 18,52 14,100 -15,133 -29,33 -76,43 -129,32 -49,-10 -105,-38 -154,-81 -50,-43 -85,-95 -101,-142 -17,-52 -14,-100 15,-133zm122 7c-40,-8 -74,-2 -92,19 -19,22 -20,56 -7,94 14,41 45,86 89,125 44,39 93,63 136,72 39,8 73,2 91,-19 19,-22 21,-56 8,-94 -15,-41 -45,-86 -90,-125 -44,-39 -92,-63 -135,-72z"/>
   <path class="fil0" d="M859 285c-6,0 -12,-2 -17,-6 -4,-4 -8,-10 -10,-19l-9 -37c-2,7 -4,13 -6,20 -2,6 -5,12 -7,17 -4,9 -8,15 -12,19 -5,4 -10,6 -16,6 -6,0 -11,-2 -16,-7 -4,-4 -8,-10 -10,-18l-29 -113c-3,-8 -2,-14 1,-18 3,-4 7,-6 13,-6 5,0 9,1 11,5 3,3 6,9 8,17l26 106 15 -49c3,-9 5,-16 6,-22 1,-5 1,-10 1,-13 0,-4 0,-8 -1,-12 -1,-3 -2,-6 -3,-9 -2,-8 -1,-13 2,-16 3,-3 7,-5 11,-5 5,0 9,2 12,5 3,3 5,8 7,15l24 106c8,-21 13,-38 16,-51 3,-13 4,-22 4,-29 0,-7 0,-12 0,-16 -1,-4 -2,-7 -2,-10 -1,-2 -1,-5 -1,-7 0,-4 1,-7 4,-10 3,-4 7,-5 14,-5 5,0 8,2 11,5 3,4 5,8 6,14 1,5 1,10 1,15 0,7 -1,15 -2,24 -2,9 -4,19 -7,28 -2,10 -5,19 -9,28 -3,9 -6,17 -9,23 -4,9 -8,15 -13,19 -4,4 -9,6 -14,6zm91 -136c-6,0 -10,-2 -14,-5 -4,-4 -6,-8 -6,-14 0,-5 2,-10 6,-13 4,-4 8,-6 14,-6 5,0 10,2 14,6 4,3 5,8 5,13 0,6 -1,10 -5,14 -4,3 -9,5 -14,5zm16 121c0,10 -5,15 -16,15 -5,0 -9,-2 -12,-4 -3,-3 -4,-6 -4,-11l0 -86c0,-5 1,-9 3,-11 3,-3 7,-4 13,-4 6,0 10,1 12,4 3,2 4,6 4,11l0 86zm76 15c-16,0 -29,-5 -38,-15 -9,-10 -13,-26 -13,-46l0 -95c0,-12 5,-18 16,-18 10,0 15,6 15,18l0 19c0,6 0,11 0,15 -1,3 -1,7 -1,9 -1,3 -2,6 -3,9 3,-4 7,-8 12,-10 5,-2 11,-2 19,-2 9,0 17,1 24,5 7,3 12,9 16,17 4,8 6,18 6,32 0,20 -5,35 -14,46 -10,10 -23,16 -39,16zm1 -27c7,0 12,-3 15,-7 4,-5 5,-13 5,-25 0,-9 0,-15 -2,-19 -1,-4 -4,-7 -7,-9 -3,-2 -6,-2 -11,-2 -4,0 -7,0 -10,2 -3,2 -6,5 -7,9 -2,4 -3,10 -3,19 0,12 2,20 6,25 3,4 8,7 14,7zm124 27c-10,0 -19,-2 -27,-6 -7,-4 -13,-10 -17,-18 -4,-7 -6,-15 -6,-25l0 -53c0,-10 5,-15 16,-15 11,0 16,5 16,15l0 52c0,7 2,13 5,17 3,4 7,6 13,6 5,0 9,-2 12,-6 3,-4 5,-10 5,-17l0 -52c0,-10 5,-15 16,-15 11,0 16,5 16,15l0 53c0,10 -2,18 -6,25 -4,8 -10,14 -17,18 -8,4 -16,6 -26,6zm92 -49c-6,0 -10,-2 -12,-4 -3,-3 -4,-7 -4,-11l0 -83c0,-5 1,-8 4,-11 2,-3 6,-4 12,-4 6,0 10,1 13,4 2,3 4,6 4,11l0 83c0,4 -2,8 -4,11 -3,2 -7,4 -13,4zm0 49c-5,0 -9,-2 -13,-5 -3,-4 -4,-8 -4,-13 0,-5 1,-9 4,-13 4,-3 8,-5 13,-5 6,0 10,2 13,5 3,4 5,8 5,13 0,5 -2,9 -5,13 -3,3 -7,5 -13,5z"/>
  </g>
 </g>
</svg>
